<svg width="255" height="60" viewBox="0 0 255 60" fill="none" xmlns="http://www.w3.org/2000/svg">
<mask id="mask0" mask-type="alpha" maskUnits="userSpaceOnUse" x="0" y="0" width="255" height="60">
<rect width="254.4" height="60" fill="#C4C4C4"/>
</mask>
<g mask="url(#mask0)">
<path d="M158.297 25.9192C157.165 26.022 155.828 26.2278 153.668 27.2563V29.9306C155.417 29.1078 157.577 28.7992 158.605 28.5935C159.737 28.4906 160.971 28.2849 162.925 27.3592L161.794 24.8906C160.251 25.7135 159.325 25.8163 158.297 25.9192Z" fill="#ECB730"/>
<path d="M156.548 13.885C154.697 15.8393 152.64 18.5136 149.451 18.8221L151.303 21.085C154.183 20.365 156.343 17.9993 158.503 15.7364L161.794 12.6507L160.251 10.4907L156.548 13.885Z" fill="#ECB730"/>
<path d="M144.308 8.64019C143.999 9.66876 143.588 11.5202 141.531 13.4745L143.896 14.1945C145.542 13.3716 146.262 11.3145 146.879 9.46305L147.291 8.22876L144.822 7.2002L144.308 8.64019Z" fill="#ECB730"/>
<path d="M129.497 9.87436C130.319 11.4172 131.039 12.4458 130.628 14.4001L133.302 14.8115C133.817 11.8286 132.788 10.0801 131.862 8.43437C131.039 7.09723 130.319 5.76009 130.319 3.6001H127.645C127.542 6.58295 128.674 8.43437 129.497 9.87436Z" fill="#ECB730"/>
<path d="M109.646 14.811L111.086 15.3253C112.526 15.7367 116.331 16.971 116.948 17.7939L119.005 16.1482C117.977 14.9139 115.2 13.8853 111.908 12.8567L110.571 12.4453L109.646 14.811Z" fill="#ECB730"/>
<path d="M106.251 26.0229L102.343 26.2286V28.9029L106.457 28.6972C109.234 28.4915 112.423 28.1829 114.48 28.9029L115.303 26.3315C112.834 25.4058 109.44 25.7144 106.251 26.0229Z" fill="#ECB730"/>
<path d="M109.646 40.8333L111.805 42.3762C113.245 40.4219 114.068 40.0105 117.051 39.1876L116.331 36.6162C113.143 37.5419 111.497 38.2619 109.646 40.8333Z" fill="#ECB730"/>
<path d="M119.931 48.4444C118.799 50.0901 117.565 52.0444 115.199 53.793L116.742 55.9529C119.519 53.8958 120.959 51.7358 122.091 49.8844C122.913 48.6501 123.531 47.7244 124.251 47.2101L122.913 44.9473C121.782 45.7701 120.959 47.0044 119.931 48.4444Z" fill="#ECB730"/>
<path d="M133.817 51.2222L134.228 55.1308L134.434 56.6737L137.108 56.5708L136.8 54.7194L136.285 50.0908L133.817 51.2222Z" fill="#ECB730"/>
<path d="M143.588 46.0793C144.822 47.725 146.468 49.6793 149.142 51.7364C150.685 52.9707 151.405 53.8964 151.816 54.7193L154.285 53.6907C153.771 52.765 152.845 51.325 150.685 49.5764C148.216 47.6222 146.674 45.8736 145.645 44.4336L143.588 46.0793Z" fill="#ECB730"/>
<path d="M151.714 35.8974L151.92 38.5717C152.537 38.5717 153.257 38.7774 154.285 39.0859C156.548 39.8059 159.942 40.9374 166.217 40.0116L165.805 37.3374C160.148 38.1602 157.165 37.1317 155.005 36.5145C153.874 36.1031 152.845 35.7945 151.714 35.8974Z" fill="#ECB730"/>
<path d="M131.04 22.6289C131.142 22.7318 131.245 22.8347 131.348 22.9375L133.2 21.1889C133.097 21.0861 132.994 20.9832 132.891 20.8804C132.48 21.1889 132.068 21.6004 131.76 21.9089C131.451 22.1147 131.245 22.4232 131.04 22.6289Z" fill="#ECB730"/>
<path d="M145.542 19.0278C141.839 16.3535 136.491 17.7935 132.788 20.8792C132.891 20.9821 132.994 21.0849 133.097 21.1878L131.245 22.9364C131.142 22.8335 131.04 22.7306 130.937 22.6278C128.057 26.1249 126.617 31.2678 130.731 36.3077C132.377 38.3649 134.639 39.2906 137.108 38.982C140.194 38.4677 143.177 35.7935 144.308 32.502C145.337 29.7249 144.925 27.0506 143.279 25.0963C141.428 22.8335 138.959 22.3192 136.697 23.5535C133.817 25.0963 131.862 29.3135 132.685 31.9878C132.891 32.8106 133.817 34.7649 136.902 34.4563C138.239 34.4563 139.474 33.6335 140.091 32.3992C140.708 31.2678 140.708 30.0335 140.091 29.1078C139.577 28.2849 138.548 27.8735 137.417 27.9763L137.622 30.4449C137.828 30.4449 137.931 30.4449 137.931 30.4449C137.931 30.5478 137.931 30.8563 137.725 31.1649C137.622 31.3706 137.314 31.8849 136.697 31.8849C135.257 31.9878 135.051 31.3706 134.948 31.1649C134.537 29.7249 135.874 26.7421 137.725 25.6106C138.959 24.8906 140.091 25.1992 141.222 26.5363C142.662 28.2849 142.251 30.342 141.839 31.4735C140.914 33.942 138.754 35.9992 136.491 36.4106C134.948 36.6163 133.611 36.102 132.48 34.662C128.262 29.5192 131.965 24.8906 133.199 23.5535C135.977 20.5706 140.811 18.8221 143.794 20.8792C146.159 22.5249 146.674 24.7878 146.777 27.4621C146.879 30.342 145.851 33.0163 143.485 36.3077C140.914 39.9077 136.285 43.4049 134.742 43.4049C131.76 43.4049 128.88 39.702 127.337 37.7477C123.634 32.9135 119.725 24.3763 122.4 21.3935C123.12 20.5706 124.56 19.6449 126.205 19.6449C127.44 19.6449 128.468 20.1592 130.834 22.4221C131.04 22.2164 131.245 22.0106 131.451 21.7021C131.862 21.2906 132.171 20.9821 132.582 20.6735C129.805 17.8964 128.057 17.0735 126.205 17.1764C123.737 17.1764 121.68 18.5135 120.548 19.7478C116.331 24.3763 121.988 34.8677 125.382 39.2906C127.234 41.6563 130.525 45.9763 134.845 45.9763C137.828 45.9763 143.177 41.2449 145.542 37.8506C148.319 34.1477 149.451 30.9592 149.348 27.4621C149.451 24.6849 148.937 21.3935 145.542 19.0278Z" fill="#ECB730"/>
<path d="M251.588 28.389H245.52V26.1261C245.52 25.8176 245.52 25.6118 245.52 25.3033C245.726 23.2461 246.651 22.3204 248.503 22.3204C249.12 22.3204 249.634 22.4233 250.045 22.629C251.074 23.1433 251.588 24.2747 251.588 26.1261V28.389ZM252.617 20.8804C252.103 20.3661 251.383 20.0576 250.663 19.749C250.045 19.5433 249.325 19.4404 248.503 19.4404C245.006 19.4404 242.846 21.6004 242.537 25.3033C242.537 25.7147 242.434 26.0233 242.434 26.4347V33.9432C242.434 34.149 242.434 34.4575 242.434 34.6632C242.64 37.1318 243.566 38.8804 245.417 39.8061C246.446 40.3204 247.68 40.6289 249.12 40.6289H252.514V37.6461H248.503C246.548 37.6461 245.52 36.5147 245.417 34.3547V31.3718H250.663H252.514H254.365V26.229C254.571 23.7604 253.851 22.0119 252.617 20.8804Z" fill="#1D71B8"/>
<path d="M203.759 34.0461C203.759 36.8232 202.936 37.9547 200.776 37.9547C198.616 37.9547 197.793 36.8232 197.793 34.0461V26.3318C197.793 23.5547 198.616 22.4233 200.776 22.4233C202.936 22.4233 203.759 23.5547 203.759 26.3318V34.0461ZM200.776 19.4404C196.868 19.4404 194.811 21.8061 194.811 26.3318V34.0461C194.811 38.5718 196.868 40.9375 200.776 40.9375C204.685 40.9375 206.742 38.5718 206.742 34.0461V26.3318C206.742 21.8061 204.685 19.4404 200.776 19.4404Z" fill="#1D71B8"/>
<path d="M186.891 31.0623C186.891 33.6337 185.965 34.7651 183.805 34.7651H182.776V25.4052H183.805C185.965 25.4052 186.891 26.5366 186.891 29.108V31.0623ZM179.896 34.868H178.868C176.708 34.868 175.782 33.7366 175.782 31.1652V29.2109C175.782 26.6395 176.708 25.508 178.868 25.508H179.896V34.868ZM183.599 22.5252H182.776V19.748H179.793V22.5252H178.971C174.959 22.5252 172.696 24.9937 172.696 29.2109V31.1652C172.696 35.3823 174.959 37.8508 178.971 37.8508H179.793V40.628H182.776V37.8508H183.599C187.611 37.8508 189.873 35.3823 189.873 31.1652V29.2109C189.873 24.9937 187.611 22.5252 183.599 22.5252Z" fill="#1D71B8"/>
<path d="M216.822 28.9023H214.765V22.628H216.822C219.805 22.628 220.833 23.4509 220.833 25.7137C220.833 28.388 219.393 28.9023 216.822 28.9023ZM216.822 19.748H211.885V40.628H214.868V31.8852H216.925C221.759 31.8852 223.919 30.0337 223.919 25.8166C223.816 21.8052 221.45 19.748 216.822 19.748Z" fill="#1D71B8"/>
<path d="M226.696 22.628H231.633V40.628H234.616V22.628H239.553V19.748H226.696V22.628Z" fill="#1D71B8"/>
<path d="M33.9429 22.8349H38.88V40.8348H41.8628V22.8349H46.6971V19.8521H33.9429V22.8349Z" fill="#1D71B8"/>
<path d="M17.5889 40.8348H20.5717V22.8349H26.6403V40.8348H29.6231V19.8521H17.5889V40.8348Z" fill="#1D71B8"/>
<path d="M58.8346 28.7994H52.766V26.5366C52.766 26.228 52.766 26.0223 52.766 25.7137C52.9718 23.6566 53.8975 22.7309 55.7489 22.7309C56.366 22.7309 56.8803 22.8338 57.2918 23.0395C58.3203 23.5537 58.8346 24.6852 58.8346 26.5366V28.7994ZM58.0117 20.0566C57.3946 19.8509 56.6746 19.748 55.8518 19.748C52.3546 19.748 50.1946 21.908 49.8861 25.6109C49.8861 26.0223 49.7832 26.3309 49.7832 26.7423V34.2509C49.7832 34.4566 49.7832 34.7651 49.7832 34.9709C49.9889 37.4394 50.9146 39.188 52.766 40.2166C53.7946 40.7308 55.0289 41.0394 56.4689 41.0394H59.966V38.0566H55.9546C54.0003 38.0566 52.9718 36.9251 52.8689 34.7651V31.7823H58.1146H59.966H61.8174V26.6395C61.8174 24.2737 61.2003 22.4223 59.966 21.2909C59.3489 20.6738 58.7317 20.2623 58.0117 20.0566Z" fill="#1D71B8"/>
<path d="M9.0514 28.5944H2.98285V26.3315C2.98285 23.6572 3.90856 22.5258 5.9657 22.5258C8.12569 22.5258 8.94854 23.6572 8.94854 26.3315V28.5944H9.0514ZM5.9657 19.543C2.15999 19.543 0 22.0115 0 26.3315V40.7315H2.98285V31.4744H9.0514V40.7315H12.0342V26.3315C11.9314 22.0115 9.87425 19.543 5.9657 19.543Z" fill="#1D71B8"/>
<path d="M79.9195 19.8521H76.3195C76.3195 19.8521 70.1481 26.9492 69.1196 28.1835V19.8521H66.1367V40.732H69.1196V31.6806C70.251 32.9149 77.3481 40.732 77.3481 40.732H81.2567C81.2567 40.732 71.5881 30.2406 71.0738 29.7263C71.4853 29.3149 79.9195 19.8521 79.9195 19.8521Z" fill="#1D71B8"/>
<path d="M93.0856 28.5944H87.017V26.3315C87.017 23.6572 87.9427 22.5258 89.9999 22.5258C92.1599 22.5258 92.9827 23.6572 92.9827 26.3315V28.5944H93.0856ZM89.9999 19.543C86.1942 19.543 84.0342 22.0115 84.0342 26.3315V40.7315H87.017V31.4744H93.0856V40.7315H96.0684V26.3315C95.9656 22.0115 93.9084 19.543 89.9999 19.543Z" fill="#1D71B8"/>
</g>
</svg>
