<svg width="24" height="24" viewBox="0 0 24 24" fill="none" xmlns="http://www.w3.org/2000/svg">
<path fill-rule="evenodd" clip-rule="evenodd" d="M9.14342 1.03044C6.93474 1.20705 5.00506 2.12376 3.4514 3.73448C0.866363 6.41439 0.264145 10.4178 1.93947 13.7852C3.89606 17.7177 8.43362 19.6521 12.5751 18.3191C13.2184 18.1121 13.8261 17.8463 14.2882 17.5701C14.4544 17.4707 14.6669 17.4969 14.804 17.6337L17.3694 20.1926C19.2739 22.0923 20.2131 22.9912 20.3092 23.0063C20.6358 23.0575 20.7316 22.9878 21.8203 21.9065C22.9631 20.7713 23.0793 20.6087 22.9655 20.3023C22.9309 20.209 21.7123 18.943 20.136 17.3625L17.8836 15.1042C17.576 14.7958 17.5026 14.324 17.702 13.9367C19.2048 11.0183 19.022 7.57266 17.2207 4.86263C16.7845 4.20645 16.001 3.36573 15.3538 2.85939C13.617 1.50083 11.4056 0.849577 9.14342 1.03044ZM11.2762 2.24783C14.0023 2.69755 16.2849 4.67276 17.1618 7.34107C17.4143 8.10959 17.4863 8.54917 17.5186 9.52115C17.5684 11.016 17.3601 12.0384 16.7508 13.289C15.983 14.8649 14.8364 16.013 13.2423 16.8023C11.1831 17.8218 8.63161 17.8213 6.54278 16.801C3.93269 15.5261 2.29576 13.006 2.18189 10.0874C2.12875 8.72618 2.35359 7.65585 2.94948 6.43279C4.46096 3.33045 7.76684 1.66895 11.2762 2.24783ZM21.0015 21.0298C20.6817 21.3502 20.1626 21.3502 19.8428 21.0299L17.9762 19.1607L16.1047 17.2865C15.786 16.9675 15.7824 16.4517 16.0965 16.1282C16.4079 15.8074 16.9216 15.8032 17.2382 16.119L19.1218 17.9973L21.0003 19.8706C21.3208 20.1903 21.3214 20.7094 21.0015 21.0298Z" fill="black" stroke="black"/>
</svg>
